<svg width="126" height="113" viewBox="0 0 126 113" fill="none" xmlns="http://www.w3.org/2000/svg">
<path d="M20.6754 46.2756H7.82341C3.64814 46.2756 0.263414 49.657 0.263414 53.828V101.2V109.044C0.263414 110.712 1.6173 112.065 3.28741 112.065C4.02649 112.065 4.73999 111.794 5.29311 111.305L15.4186 102.34C16.2483 101.605 17.3185 101.2 18.4272 101.2H65.2794C69.4547 101.2 72.8394 97.8185 72.8394 93.6474V81.2288H26.7234C23.3832 81.2288 20.6754 78.5238 20.6754 75.1869V46.2756Z" fill="#8D4FC9"/>
<path fill-rule="evenodd" clip-rule="evenodd" d="M25.9674 3.22693C23.0447 3.22693 20.6754 5.59386 20.6754 8.51361V75.4792C20.6754 78.399 23.0447 80.7659 25.9674 80.7659H99.7024C101.378 80.7659 102.995 81.3838 104.243 82.5011L122.231 98.6042C122.37 98.7283 122.549 98.797 122.735 98.797C123.153 98.797 123.491 98.4589 123.491 98.0418V8.51361C123.491 5.59386 121.122 3.22693 118.199 3.22693H25.9674Z" stroke="#DD4EC6" stroke-width="3.168"/>
<path d="M50.9154 46.2756C53.8381 46.2756 56.2074 43.9087 56.2074 40.989C56.2074 38.0692 53.8381 35.7023 50.9154 35.7023C47.9927 35.7023 45.6234 38.0692 45.6234 40.989C45.6234 43.9087 47.9927 46.2756 50.9154 46.2756Z" fill="#DD4EC6"/>
<path d="M70.5714 46.2756C73.4941 46.2756 75.8634 43.9087 75.8634 40.989C75.8634 38.0692 73.4941 35.7023 70.5714 35.7023C67.6487 35.7023 65.2794 38.0692 65.2794 40.989C65.2794 43.9087 67.6487 46.2756 70.5714 46.2756Z" fill="#DD4EC6"/>
<path d="M90.2274 46.2756C93.1501 46.2756 95.5194 43.9087 95.5194 40.989C95.5194 38.0692 93.1501 35.7023 90.2274 35.7023C87.3047 35.7023 84.9354 38.0692 84.9354 40.989C84.9354 43.9087 87.3047 46.2756 90.2274 46.2756Z" fill="#DD4EC6"/>
</svg>
